<svg width="42" height="30" xmlns="http://www.w3.org/2000/svg" clip-rule="evenodd">

 <g>
  <title>background</title>
  <rect fill="none" id="canvas_background" height="32" width="44" y="-1" x="-1"/>
 </g>
 <g>
  <title>Layer 1</title>
  <rect id="svg_4" height="24.583332" width="37.22222" y="2.599827" x="2.215279" stroke-opacity="null" stroke-width="null" stroke="null" fill="#d5ecdf"/>
  <path stroke="null" fill="#70169e" id="window1" d="m0.992555,25.589668l0,-21.225779c0,-1.545948 1.325924,-2.801221 2.958884,-2.801221l33.880498,0c1.631004,0 2.96084,1.253422 2.96084,2.801221l0,21.225779c0,1.545948 -1.325924,2.801221 -2.96084,2.801221l-33.880498,0c-1.63296,0 -2.958884,-1.255273 -2.958884,-2.801221zm37.928674,0l0,-21.225779c0,-0.564688 -0.486955,-1.027547 -1.089292,-1.027547l-33.880498,0c-0.598426,0 -1.085381,0.461007 -1.085381,1.027547l0,21.225779c0,0.567465 0.486955,1.027547 1.085381,1.027547l33.880498,0c0.600382,0 1.089292,-0.460082 1.089292,-1.027547z"/>
  <path fill="#6f929f" id="lines" d="m6.837556,23.700112l-0.002,-0.779c0.187,0.076 0.388,0.117 0.603,0.117c0.197,0 0.386,-0.035 0.558,-0.1l0,0.762l-1.159,0zm6.649,0l0,-1.16l1.159,0l0,1.16l-1.159,0zm6.652,0l0,-1.16l1.16,0l0,1.16l-1.16,0zm6.65,0l0,-1.16l1.159,0l0,1.16l-1.159,0zm6.652,0l0,-1.16l1.16,0l0,1.16l-1.16,0zm-19.954,-1.852l0,-1.157l1.159,0l0,1.157l-1.159,0zm6.652,0l0,-1.157l1.16,0l0,1.157l-1.16,0zm6.65,0l0,-1.157l1.159,0l0,1.157l-1.159,0zm6.652,0l0,-1.157l1.16,0l0,1.157l-1.16,0zm-19.954,-1.849l0,-1.159l1.159,0l0,1.159l-1.159,0zm6.652,0l0,-1.159l1.16,0l0,1.159l-1.16,0zm6.65,0l-0.002,-1.134c0.191,0.08 0.402,0.125 0.623,0.125c0.187,0 0.368,-0.031 0.538,-0.093l0,1.102l-1.159,0zm6.652,0l0,-1.159l1.16,0l0,1.159l-1.16,0zm-26.605,-0.032l0.002,-1.127l1.159,0l0,1.112l0,-0.004c-0.172,-0.066 -0.361,-0.102 -0.558,-0.102c-0.215,0 -0.416,0.043 -0.603,0.121zm0.004,-1.917l0,-1.158l1.159,0l0,1.158l-1.159,0zm6.649,0l0,-1.158l1.16,0l0,1.158l-1.16,0zm6.653,0l0,-1.158l1.159,0l0,1.158l-1.159,0zm13.301,0l0,-1.158l1.16,0l0,1.158l-1.16,0zm-26.603,-1.85l0,-1.159l1.157,0l0,1.159l-1.157,0zm6.649,0l-0.002,-0.501c0.217,0.11 0.46,0.169 0.72,0.169c0.15,0 0.299,-0.021 0.439,-0.061l0,0.393l-1.157,0zm6.653,0l0,-1.159l1.157,0l0,1.159l-1.157,0zm13.301,0l0,-1.159l1.158,0l0,1.159l-1.158,0zm-6.654,-0.276l0.002,-0.883l1.157,0l0,0.86l0,-0.007c-0.17,-0.061 -0.351,-0.096 -0.538,-0.096c-0.221,0 -0.43,0.047 -0.621,0.126zm-19.949,-1.574l0,-1.158l1.157,0l0,1.158l-1.157,0zm13.302,0l-0.003,-0.69c0.179,0.07 0.374,0.109 0.581,0.109c0.204,0 0.4,-0.039 0.579,-0.109l0,0.69l-1.157,0zm6.649,0l0,-1.158l1.157,0l0,1.158l-1.157,0zm6.652,0l0,-1.158l1.158,0l0,1.158l-1.158,0zm-26.603,-1.852l0,-1.158l1.157,0l0,1.158l-1.157,0zm6.649,0l0,-1.158l1.157,0l0,1.158l-1.157,0zm13.302,0l0,-1.158l1.157,0l0,1.158l-1.157,0zm6.652,0l0,-1.158l1.158,0l0,1.158l-1.158,0zm-26.605,-1.849l0,-1.16l1.159,0l0,1.16l-1.159,0zm6.649,0l0,-1.16l1.159,0l0,1.16l-1.159,0zm6.652,0l0,-1.16l1.16,0l0,1.16l-0.109,0c-0.149,-0.047 -0.306,-0.072 -0.47,-0.072c-0.166,0 -0.324,0.025 -0.472,0.072l-0.109,0zm6.65,0l0,-1.16l1.159,0l0,1.16l-1.159,0zm-19.951,-1.851l0,-1.158l1.159,0l0,1.158l-1.159,0zm6.649,0l0,-1.158l1.159,0l0,1.158l-1.159,0zm6.652,0l0,-1.158l1.16,0l0,1.158l-1.16,0zm6.65,0l0,-1.158l1.159,0l0,1.158l-1.159,0zm7.223,-0.695c-0.203,0 -0.396,0.039 -0.573,0.107l0.002,0.004l0,-0.574l1.16,0l0,0.581l0,-0.003c-0.183,-0.074 -0.384,-0.115 -0.589,-0.115zm-27.174,-1.155l0,-1.159l1.159,0l0,1.159l-1.159,0zm6.649,0l0,-1.159l1.159,0l0,1.159l-1.159,0zm6.652,0l0,-1.159l1.16,0l0,1.159l-1.16,0zm6.65,0l0,-1.159l1.159,0l0,1.159l-1.159,0zm6.652,0l0,-1.159l1.16,0l0,1.159l-1.16,0z"/>
  <path fill="#70169e" id="options" d="m5.311556,21.442112c0,-1.172 0.953,-2.128 2.127,-2.128c0.209,0 0.413,0.031 0.607,0.089l4.158,-4.403c-0.081,-0.227 -0.126,-0.472 -0.126,-0.727c0,-1.173 0.954,-2.128 2.129,-2.128c0.591,0 1.127,0.245 1.512,0.636l2.897,-0.934c0.157,-1.017 1.04,-1.803 2.104,-1.803c1.172,0 2.128,0.956 2.128,2.129c0,0.156 -0.017,0.308 -0.049,0.455l3.586,2.915l-0.009,-0.008c0.306,-0.17 0.657,-0.268 1.034,-0.268c0.209,0 0.413,0.032 0.607,0.089l4.015,-4.869c-0.096,-0.242 -0.149,-0.509 -0.149,-0.788c0,-1.172 0.954,-2.127 2.129,-2.127c1.172,0 2.127,0.955 2.127,2.127c0,1.175 -0.955,2.129 -2.127,2.129c-0.19,0 -0.371,-0.024 -0.544,-0.068l-4.062,4.924l0.007,-0.006c0.08,0.223 0.125,0.466 0.125,0.716c0,1.175 -0.955,2.129 -2.128,2.129c-1.175,0 -2.127,-0.954 -2.127,-2.129c0,-0.089 0.004,-0.18 0.016,-0.267l0.009,0.006l-3.722,-3.017c-0.264,0.119 -0.558,0.184 -0.866,0.184c-0.592,0 -1.126,-0.24 -1.513,-0.629l-2.903,0.936c-0.157,1.017 -1.04,1.794 -2.097,1.794c-0.213,0 -0.418,-0.03 -0.611,-0.088l-4.163,4.412l0.007,-0.007c0.081,0.226 0.127,0.471 0.127,0.724c0,1.175 -0.955,2.127 -2.128,2.127c-1.174,0 -2.127,-0.952 -2.127,-2.127zm3.192,0c0,-0.583 -0.482,-1.065 -1.065,-1.065c-0.585,0 -1.064,0.482 -1.064,1.065c0,0.585 0.479,1.064 1.064,1.064c0.583,0 1.065,-0.479 1.065,-1.064zm19.971,-4.048c0,-0.583 -0.482,-1.063 -1.065,-1.063c-0.585,0 -1.064,0.48 -1.064,1.063c0,0.585 0.479,1.065 1.064,1.065c0.583,0 1.065,-0.48 1.065,-1.065zm-0.464,-2.029l0.006,-0.009l-0.006,0.009zm-12.741,-1.092c0,-0.584 -0.48,-1.064 -1.063,-1.064c-0.586,0 -1.065,0.48 -1.065,1.064c0,0.585 0.479,1.064 1.065,1.064c0.583,0 1.063,-0.479 1.063,-1.064zm1.03,0.334l0.004,0l-0.004,0zm5.484,-2.434c0,-0.583 -0.481,-1.065 -1.064,-1.065c-0.585,0 -1.064,0.482 -1.064,1.065c0,0.585 0.479,1.063 1.064,1.063c0.583,0 1.064,-0.478 1.064,-1.063zm13.291,-2.474c0,-0.582 -0.481,-1.063 -1.063,-1.063c-0.586,0 -1.065,0.481 -1.065,1.063c0,0.586 0.479,1.065 1.065,1.065c0.582,0 1.063,-0.479 1.063,-1.065z"/>
 </g>
</svg>