<?xml version="1.0" encoding="utf-8"?><svg viewBox="0 0 100 100" xmlns="http://www.w3.org/2000/svg" width="128px" height="128px" xmlns:xlink="http://www.w3.org/1999/xlink" style="width:100%;height:100%;background-size:initial;background-repeat-y:initial;background-repeat-x:initial;background-position-y:initial;background-position-x:initial;background-origin:initial;background-color:initial;background-clip:initial;background-attachment:initial;animation-play-state:paused" ><g class="ldl-scale" style="transform-origin:50% 50%;transform:scale(0.8);animation-play-state:paused" ><path d="M42.116 36.345l-3.942 6.827L34.232 50l3.942 6.828 3.942 6.827h15.768l3.942-6.827L65.768 50l-3.942-6.828-3.942-6.827z" fill="#f8b26a" style="fill:rgb(255, 119, 17);animation-play-state:paused" ></path>
<path d="M60.482 65.155l3.942 6.828 3.942 6.828h15.768l7.884-13.656L84.134 51.5H68.366l-3.942 6.828z" fill="#f47e60" style="fill:rgb(151, 0, 215);animation-play-state:paused" ></path>
<path d="M35.576 58.328L31.634 51.5H15.866L7.982 65.155l7.884 13.656h15.768l3.942-6.828 3.942-6.828z" fill="#a0c8d7" style="fill:rgb(120, 0, 171);animation-play-state:paused" ></path>
<path d="M42.116 66.655l-3.942 6.828-3.942 6.828 7.884 13.655h15.768l7.884-13.655-3.942-6.828-3.942-6.828z" fill="#abbd81" style="fill:rgb(84, 0, 119);animation-play-state:paused" ></path>
<path d="M57.884 33.345l3.942-6.828 3.942-6.828-7.884-13.655H42.116l-7.884 13.655 3.942 6.828 3.942 6.828z" fill="#abbd81" style="fill:rgb(84, 0, 119);animation-play-state:paused" ></path>
<path d="M64.424 41.672l3.942 6.828h15.768l7.884-13.655-7.884-13.656H68.366l-3.942 6.828-3.942 6.828z" fill="#a0c8d7" style="fill:rgb(120, 0, 171);animation-play-state:paused" ></path>
<path d="M39.518 34.845l-3.942-6.828-3.942-6.828H15.866L7.982 34.845 15.866 48.5h15.768l3.942-6.828z" fill="#f47e60" style="fill:rgb(151, 0, 215);animation-play-state:paused" ></path>
<metadata xmlns:d="https://loading.io/stock/" style="animation-play-state:paused" ><d:name style="animation-play-state:paused" >honeycomb</d:name>


<d:tags style="animation-play-state:paused" >honeycomb,hex,grid,tactics,step,map,tile</d:tags>


<d:license style="animation-play-state:paused" >by</d:license>


<d:slug style="animation-play-state:paused" >ufhucs</d:slug></metadata></g><!-- generated by https://loading.io/ --></svg>