<?xml version="1.0" encoding="utf-8"?><svg xml:space="preserve" viewBox="0 0 100 100" y="0" x="0" xmlns="http://www.w3.org/2000/svg" id="圖層_1" version="1.1" width="128px" height="128px" xmlns:xlink="http://www.w3.org/1999/xlink" style="width:100%;height:100%;background-size:initial;background-repeat-y:initial;background-repeat-x:initial;background-position-y:initial;background-position-x:initial;background-origin:initial;background-color:initial;background-clip:initial;background-attachment:initial;animation-play-state:paused" ><g class="ldl-scale" style="transform-origin:50% 50%;transform:scale(0.79);animation-play-state:paused" ><path stroke-miterlimit="10" stroke-width="8" stroke="#333" fill="none" d="M45.7 10.2L17.6 26.4c-2.7 1.5-4.3 4.4-4.3 7.4v32.4c0 3.1 1.6 5.9 4.3 7.4l28.1 16.2c2.7 1.5 5.9 1.5 8.6 0l28.1-16.2c2.7-1.5 4.3-4.4 4.3-7.4V33.8c0-3.1-1.6-5.9-4.3-7.4L54.3 10.2c-2.7-1.6-5.9-1.6-8.6 0z" style="stroke:rgb(120, 0, 171);animation-play-state:paused" ></path>
<path fill="#333" d="M70.7 33.8L53.6 24c-2.2-1.3-5-1.3-7.2 0l-17.1 9.9c-2.2 1.3-3.6 3.7-3.6 6.3V60c0 2.6 1.4 5 3.6 6.3L46.4 76c1.1.6 2.4 1 3.6 1 1.3 0 2.5-.3 3.6-1l17.1-9.9c2.2-1.3 3.6-3.7 3.6-6.3V40.1c.1-2.6-1.3-5-3.6-6.3z" style="fill:rgb(120, 0, 171);animation-play-state:paused" ></path>
<metadata xmlns:d="https://loading.io/stock/" style="animation-play-state:paused" ><d:name style="animation-play-state:paused" >toggle</d:name>
<d:tags style="animation-play-state:paused" >toggle,active,hover,hexagon,enable,turn on,active,form</d:tags>
<d:license style="animation-play-state:paused" >by</d:license>
<d:slug style="animation-play-state:paused" >c25x74</d:slug></metadata></g><!-- generated by https://loading.io/ --></svg>