<?xml version="1.0" encoding="utf-8"?><svg xml:space="preserve" viewBox="0 0 100 100" y="0" x="0" xmlns="http://www.w3.org/2000/svg" id="圖層_1" version="1.1" width="128px" height="128px" xmlns:xlink="http://www.w3.org/1999/xlink" style="width:100%;height:100%;background-size:initial;background-repeat-y:initial;background-repeat-x:initial;background-position-y:initial;background-position-x:initial;background-origin:initial;background-color:initial;background-clip:initial;background-attachment:initial;animation-play-state:paused" ><g class="ldl-scale" style="transform-origin:50% 50%;transform:scale(0.8);animation-play-state:paused" ><path fill="#333" d="M45.5 8.2l-29.4 17c-2.8 1.6-4.5 4.6-4.5 7.8v34c0 3.2 1.7 6.2 4.5 7.8l29.4 17c2.8 1.6 6.2 1.6 9 0l29.4-17c2.8-1.6 4.5-4.6 4.5-7.8V33c0-3.2-1.7-6.2-4.5-7.8l-29.4-17c-2.8-1.6-6.2-1.6-9 0z" style="fill:rgb(120, 0, 171);animation-play-state:paused" ></path>
<path d="M30.5 61.2l39-22.4" stroke-miterlimit="10" stroke-linecap="round" stroke-width="9" stroke="#f47e60" fill="none" style="stroke:rgb(120, 0, 171);animation-play-state:paused" ></path>
<path d="M50 72.5v-45" stroke-miterlimit="10" stroke-linecap="round" stroke-width="9" stroke="#f47e60" fill="none" style="stroke:rgb(120, 0, 171);animation-play-state:paused" ></path>
<path d="M69.5 61.2l-39-22.4" stroke-miterlimit="10" stroke-linecap="round" stroke-width="9" stroke="#f47e60" fill="none" style="stroke:rgb(120, 0, 171);animation-play-state:paused" ></path>
<metadata xmlns:d="https://loading.io/stock/" style="animation-play-state:paused" ><d:name style="animation-play-state:paused" >star</d:name>
<d:tags style="animation-play-state:paused" >star,asterisk,note,hint,ps,caution,active,on,enable,toggle,form,hexagon</d:tags>
<d:license style="animation-play-state:paused" >by</d:license>
<d:slug style="animation-play-state:paused" >95eskr</d:slug></metadata></g><!-- generated by https://loading.io/ --></svg>